<svg width="640" height="640" xmlns="http://www.w3.org/2000/svg" xmlns:xlink="http://www.w3.org/1999/xlink" preserveAspectRatio="xMidYMid meet">
 <defs>
  <path id="b1IpF77ISu" d="m640,320c0,176.61 -143.39,320 -320,320c-176.61,0 -320,-143.39 -320,-320c0,-176.61 143.39,-320 320,-320c176.61,0 320,143.39 320,320z"/>
  <path id="ff5CTTRrQ" d="m580,320c0,143.5 -116.5,260 -260,260c-143.5,0 -260,-116.5 -260,-260c0,-143.49 116.5,-260 260,-260c143.5,0 260,116.51 260,260z"/>
  <path id="iaQMrVBuR" d="m520,320c0,110.38 -89.61,200 -200,200c-110.38,0 -200,-89.62 -200,-200c0,-110.38 89.62,-200 200,-200c110.39,0 200,89.62 200,200z"/>
 </defs>
 <g>
  <title>background</title>
  <rect fill="none" id="canvas_background" height="602" width="802" y="-1" x="-1"/>
 </g>
 <g>
  <title>Layer 1</title>
  <g stroke="null" id="svg_1">
   <g stroke="null" id="svg_2">
    <g stroke="null" id="svg_3">
     <use transform="matrix(0.9979166388511658,0,0,0.9979166388511658,0.0003267952721017764,1.3309001595371228) " stroke="null" x="1.38696" y="-1.17647" id="svg_4" fill="#ffff00" xlink:href="#b1IpF77ISu"/>
     <g stroke="null" id="svg_5">
      <use transform="matrix(0.9979166388511658,0,0,0.9979166388511658,0.0003267952721017764,1.3309001595371228) " stroke="#ffff00" x="1.38696" y="-1.17647" id="svg_6" fill-opacity="0" xlink:href="#b1IpF77ISu"/>
     </g>
    </g>
    <g stroke="null" id="svg_7">
     <use transform="matrix(0.9979166388511658,0,0,0.9979166388511658,0.0003267952721017764,1.3309001595371228) " stroke="null" x="1.38696" y="-1.17647" id="svg_8" fill="#ffa500" xlink:href="#ff5CTTRrQ"/>
     <g stroke="null" id="svg_9">
      <use transform="matrix(0.9979166388511658,0,0,0.9979166388511658,0.0003267952721017764,1.3309001595371228) " stroke="#ffa500" x="1.38696" y="-1.17647" id="svg_10" fill-opacity="0" xlink:href="#ff5CTTRrQ"/>
     </g>
    </g>
    <g stroke="null" id="svg_11">
     <use transform="matrix(0.9979166388511658,0,0,0.9979166388511658,0.0003267952721017764,1.3309001595371228) " stroke="null" x="1.38696" y="-1.17647" id="svg_12" fill="#ff0000" xlink:href="#iaQMrVBuR"/>
     <g stroke="null" id="svg_13">
      <use transform="matrix(0.9979166388511658,0,0,0.9979166388511658,0.0003267952721017764,1.3309001595371228) " stroke="#ff0000" x="1.38696" y="-1.17647" id="svg_14" fill-opacity="0" xlink:href="#iaQMrVBuR"/>
     </g>
    </g>
   </g>
  </g>
  <defs>
   <path d="m366,683q1,0 72,5t73,6q12,0 12,-8q0,-7 -73,-302t-75,-301t-1,-15q0,-42 28,-42q9,1 20,9q21,20 41,96q6,20 10,21q2,1 10,1l4,0l4,0q15,0 15,-8q0,-5 -3,-16q-13,-50 -30,-81t-28,-40t-28,-16q-8,-2 -24,-2q-34,0 -57,15t-30,31l-6,15q-1,1 -4,-1q-2,-2 -4,-4q-59,-56 -120,-56q-55,0 -97,40t-42,127q0,48 20,98t48,86q47,57 94,79t85,22q56,0 84,-42q5,-6 5,-4q1,4 27,109t28,111q0,13 -7,16t-39,5l-21,0q-6,6 -6,8t2,19q5,19 13,19zm-14,-357q-23,79 -75,79q-35,0 -67,-31t-50,-81q-29,-79 -41,-164q0,-3 0,-11t-1,-12q0,-45 18,-62t43,-18q54,0 111,72l8,11l54,217z" id="svg_23"/>
   <path d="m21,287q0,14 15,48t48,71t74,36q41,0 66,-23t26,-64q-2,-19 -3,-21q0,-3 -16,-46t-33,-97t-16,-86q0,-43 14,-60t42,-18q23,0 43,11t31,23t27,33q0,1 5,20t14,59t19,74q38,150 42,157q13,27 43,27q13,0 21,-7t11,-12t2,-9q0,-13 -49,-210t-56,-216q-28,-83 -97,-132t-138,-50q-45,0 -79,22t-34,66q0,22 7,37t19,22t20,10t17,3q44,0 44,-42q0,-20 -12,-35t-23,-20t-13,-5l-3,-1q2,-5 19,-12t34,-7l8,0q17,0 26,2q33,9 61,38t43,62t23,56t8,30l-6,-4q-6,-4 -19,-11t-26,-12q-20,-5 -39,-5q-46,0 -81,22t-46,71q-1,7 -1,31q0,57 35,149t35,117q0,1 0,2q0,9 0,12t-4,7t-11,4l-4,0q-23,0 -42,-19t-30,-41t-17,-42t-8,-22q-2,-2 -16,-2l-14,0q-6,6 -6,9z" id="svg_24"/>
   <path d="m52,289q7,42 54,97t116,56q35,0 64,-18t43,-45q42,63 101,63q37,0 64,-22t28,-59q0,-29 -14,-47t-27,-22t-23,-4q-19,0 -31,11t-12,29q0,46 50,63q-11,13 -40,13q-13,0 -19,-2q-38,-16 -56,-66q-60,-221 -60,-258q0,-28 16,-40t35,-12q37,0 73,33t49,81q3,10 6,11t16,2l4,0q15,0 15,-8q0,-1 -2,-11q-16,-57 -62,-101t-107,-44q-70,0 -106,63q-41,-62 -94,-62l-6,0q-49,0 -70,26t-22,55q0,32 19,52t45,20q43,0 43,-42q0,-20 -12,-35t-23,-20t-13,-5l-3,-1q0,-1 6,-4t16,-7t19,-3q36,0 62,45q9,16 23,68t28,108t16,66q5,27 5,39q0,28 -15,40t-34,12q-40,0 -75,-32t-49,-82q-2,-9 -5,-10t-16,-2l-14,0q-6,6 -6,11z" id="svg_22"/>
  </defs>
  <g stroke="null" id="svg_40">
   <g stroke="currentColor" id="svg_26" transform="matrix(0.14827108556668117,0,0,-0.14650725709546977,-5924.580058111167,-3038.182516725793) " stroke-width="0" fill="currentColor">
    <g stroke="null" id="svg_27">
     <g stroke="null" id="svg_28">
      <g stroke="null" id="svg_29">
       <g stroke="null" id="svg_30">
        <use stroke="null" fill="#000000" id="svg_31" x="41783.34622" y="-22453.5766" xlink:href="#svg_23"/>
       </g>
       <g stroke="null" id="svg_32">
        <use stroke="null" fill="#000000" id="svg_33" x="42303.34622" y="-22453.5766" xlink:href="#svg_24"/>
       </g>
      </g>
      <g stroke="null" id="svg_34">
       <g stroke="null" id="svg_35">
        <use stroke="null" fill="#000000" id="svg_36" x="41742.34622" y="-23815.5766" xlink:href="#svg_23"/>
       </g>
       <g stroke="null" id="svg_37">
        <use stroke="null" fill="#000000" id="svg_38" x="42262.34622" y="-23815.5766" xlink:href="#svg_22"/>
       </g>
      </g>
      <rect stroke="null" fill="#000000" id="svg_39" y="-22909.5766" x="41642.34622" height="60" width="1292"/>
     </g>
    </g>
   </g>
  </g>
  <defs>
   <path d="m114,-798q18,-26 51,-26l2,0q28,0 56,60t52,164t45,209t42,227q3,21 5,31q72,425 156,788t122,472q6,18 10,30t17,44t27,56t34,49t44,40t51,14q56,0 84,-35t32,-80q0,-25 -12,-40t-23,-19t-22,-3q-21,0 -38,15t-17,41q0,48 53,57l-3,4q-3,3 -8,7t-8,6q-15,10 -33,10q-14,0 -26,-12t-32,-56t-39,-116t-47,-203t-56,-308q-59,-335 -123,-633t-100,-432t-55,-192q-77,-233 -190,-233q-40,0 -73,31t-37,85q0,35 19,48t38,13q21,0 38,-15t17,-41q0,-48 -53,-57z" id="svg_45"/>
  </defs>
  <g stroke="null" id="svg_51">
   <g stroke="currentColor" id="svg_47" transform="matrix(0.19975902553863506,0,0,-0.156839895156167,-10855.981094535739,-5638.123003761631) " stroke-width="0" fill="currentColor">
    <g stroke="null" id="svg_48">
     <g stroke="null" id="svg_49">
      <use stroke="null" x="54862.50351" y="-38030.5924" id="svg_50" xlink:href="#svg_45"/>
     </g>
    </g>
   </g>
  </g>
 </g>
</svg>